<?xml version="1.0" standalone="no"?><!DOCTYPE svg PUBLIC "-//W3C//DTD SVG 1.1//EN" "http://www.w3.org/Graphics/SVG/1.1/DTD/svg11.dtd"><svg t="1765022806134" class="icon" viewBox="0 0 1024 1024" version="1.1" xmlns="http://www.w3.org/2000/svg" p-id="24953" width="48" height="48" xmlns:xlink="http://www.w3.org/1999/xlink"><path d="M734.677333 896H297.258667A160.896 160.896 0 0 1 136.533333 735.402667V434.346667a179.968 179.968 0 0 1 84.266667-152.917334l198.485333-125.525333a181.802667 181.802667 0 0 1 193.365334 0l198.485333 125.525333a180.010667 180.010667 0 0 1 84.266667 152.917334v301.098666A160.896 160.896 0 0 1 734.677333 896zM515.968 182.869333c-23.850667 0-47.232 6.698667-67.413333 19.413334l-198.485334 125.44a125.44 125.44 0 0 0-58.666666 106.581333v301.098667a106.026667 106.026667 0 0 0 105.856 105.728H734.72a105.984 105.984 0 0 0 105.856-105.728V434.346667a125.44 125.44 0 0 0-58.709333-106.581334L583.338667 202.24a126.208 126.208 0 0 0-67.413334-19.370667z" fill="#000000" p-id="24954"></path><path d="M620.416 807.338667a32 32 0 0 1-32-32v-153.088a72.448 72.448 0 1 0-144.896 0v153.088a32 32 0 0 1-64 0v-153.088a136.448 136.448 0 0 1 272.896 0v153.088a32 32 0 0 1-32 32z" fill="#000000" p-id="24955"></path></svg>